REM MD5 449f128d028e4ffccb96aa469424bddc
FILE "Euro Demo 23 (Europe).bin" BINARY
  TRACK 01 MODE2/2352
    INDEX 01 00:00:00
  TRACK 02 AUDIO
    INDEX 00 21:19:68
    INDEX 01 21:21:68
  TRACK 03 AUDIO
    INDEX 00 24:01:67
    INDEX 01 24:03:67
  TRACK 04 AUDIO
    INDEX 00 24:18:68
    INDEX 01 24:20:68
  TRACK 05 AUDIO
    INDEX 00 24:24:68
    INDEX 01 24:26:68
  TRACK 06 AUDIO
    INDEX 00 28:38:41
    INDEX 01 28:40:41
REM LEADOUT 31:57:71
